<?xml version="1.0" encoding="UTF-8" standalone="no"?>
<!DOCTYPE svg PUBLIC "-//W3C//DTD SVG 1.1//EN"
 "http://www.w3.org/Graphics/SVG/1.1/DTD/svg11.dtd">
<!-- Generated by graphviz version 10.0.1 (20240210.2158)
 -->
<!-- Pages: 1 -->
<svg width="376pt" height="263pt"
 viewBox="0.00 0.00 376.00 263.00" xmlns="http://www.w3.org/2000/svg" xmlns:xlink="http://www.w3.org/1999/xlink">
<g id="graph0" class="graph" transform="scale(1 1) rotate(0) translate(4 259)">
<polygon fill="white" stroke="none" points="-4,4 -4,-259 372,-259 372,4 -4,4"/>
<g id="clust1" class="cluster">
<title>cluster_0</title>
<polygon fill="none" stroke="white" points="8,-8 8,-247 60,-247 60,-8 8,-8"/>
<text text-anchor="middle" x="34" y="-229.7" font-family="Times,serif" font-size="14.00">inputs</text>
</g>
<g id="clust2" class="cluster">
<title>cluster_1</title>
<polygon fill="none" stroke="white" points="80,-35 80,-220 174,-220 174,-35 80,-35"/>
<text text-anchor="middle" x="127" y="-202.7" font-family="Times,serif" font-size="14.00">hidden layer 1</text>
</g>
<g id="clust3" class="cluster">
<title>cluster_2</title>
<polygon fill="none" stroke="white" points="194,-35 194,-220 288,-220 288,-35 194,-35"/>
<text text-anchor="middle" x="241" y="-202.7" font-family="Times,serif" font-size="14.00">hidden layer 2</text>
</g>
<g id="clust4" class="cluster">
<title>cluster_3</title>
<polygon fill="none" stroke="white" points="308,-89 308,-166 360,-166 360,-89 308,-89"/>
<text text-anchor="middle" x="334" y="-148.7" font-family="Times,serif" font-size="14.00">output</text>
</g>
<!-- x[0] -->
<g id="node1" class="node">
<title>x[0]</title>
<ellipse fill="none" stroke="black" cx="34" cy="-34" rx="18" ry="18"/>
<text text-anchor="middle" x="34" y="-28.95" font-family="Times,serif" font-size="14.00">x[0]</text>
</g>
<!-- h1[0] -->
<g id="node5" class="node">
<title>h1[0]</title>
<ellipse fill="none" stroke="black" cx="127" cy="-115" rx="18" ry="18"/>
<text text-anchor="middle" x="127" y="-109.95" font-family="Times,serif" font-size="14.00">h1[0]</text>
</g>
<!-- x[0]&#45;&gt;h1[0] -->
<g id="edge1" class="edge">
<title>x[0]&#45;&gt;h1[0]</title>
<path fill="none" stroke="black" d="M48.04,-45.61C62.77,-58.72 86.97,-80.26 104.51,-95.87"/>
<polygon fill="black" stroke="black" points="102.06,-98.38 111.86,-102.41 106.71,-93.15 102.06,-98.38"/>
</g>
<!-- h1[1] -->
<g id="node6" class="node">
<title>h1[1]</title>
<ellipse fill="none" stroke="black" cx="127" cy="-169" rx="18" ry="18"/>
<text text-anchor="middle" x="127" y="-163.95" font-family="Times,serif" font-size="14.00">h1[1]</text>
</g>
<!-- x[0]&#45;&gt;h1[1] -->
<g id="edge2" class="edge">
<title>x[0]&#45;&gt;h1[1]</title>
<path fill="none" stroke="black" d="M44.91,-48.7C60.5,-71.83 90.91,-116.95 109.74,-144.87"/>
<polygon fill="black" stroke="black" points="106.76,-146.72 115.25,-153.06 112.57,-142.81 106.76,-146.72"/>
</g>
<!-- h1[2] -->
<g id="node7" class="node">
<title>h1[2]</title>
<ellipse fill="none" stroke="black" cx="127" cy="-61" rx="18" ry="18"/>
<text text-anchor="middle" x="127" y="-55.95" font-family="Times,serif" font-size="14.00">h1[2]</text>
</g>
<!-- x[0]&#45;&gt;h1[2] -->
<g id="edge3" class="edge">
<title>x[0]&#45;&gt;h1[2]</title>
<path fill="none" stroke="black" d="M51.69,-38.95C64.77,-42.83 83.26,-48.32 98.52,-52.85"/>
<polygon fill="black" stroke="black" points="97.38,-56.16 107.96,-55.65 99.37,-49.45 97.38,-56.16"/>
</g>
<!-- x[1] -->
<g id="node2" class="node">
<title>x[1]</title>
<ellipse fill="none" stroke="black" cx="34" cy="-88" rx="18" ry="18"/>
<text text-anchor="middle" x="34" y="-82.95" font-family="Times,serif" font-size="14.00">x[1]</text>
</g>
<!-- x[1]&#45;&gt;h1[0] -->
<g id="edge4" class="edge">
<title>x[1]&#45;&gt;h1[0]</title>
<path fill="none" stroke="black" d="M51.69,-92.95C64.77,-96.83 83.26,-102.32 98.52,-106.85"/>
<polygon fill="black" stroke="black" points="97.38,-110.16 107.96,-109.65 99.37,-103.45 97.38,-110.16"/>
</g>
<!-- x[1]&#45;&gt;h1[1] -->
<g id="edge5" class="edge">
<title>x[1]&#45;&gt;h1[1]</title>
<path fill="none" stroke="black" d="M48.04,-99.61C62.77,-112.72 86.97,-134.26 104.51,-149.87"/>
<polygon fill="black" stroke="black" points="102.06,-152.38 111.86,-156.41 106.71,-147.15 102.06,-152.38"/>
</g>
<!-- x[1]&#45;&gt;h1[2] -->
<g id="edge6" class="edge">
<title>x[1]&#45;&gt;h1[2]</title>
<path fill="none" stroke="black" d="M51.69,-83.05C64.77,-79.17 83.26,-73.68 98.52,-69.15"/>
<polygon fill="black" stroke="black" points="99.37,-72.55 107.96,-66.35 97.38,-65.84 99.37,-72.55"/>
</g>
<!-- x[2] -->
<g id="node3" class="node">
<title>x[2]</title>
<ellipse fill="none" stroke="black" cx="34" cy="-142" rx="18" ry="18"/>
<text text-anchor="middle" x="34" y="-136.95" font-family="Times,serif" font-size="14.00">x[2]</text>
</g>
<!-- x[2]&#45;&gt;h1[0] -->
<g id="edge7" class="edge">
<title>x[2]&#45;&gt;h1[0]</title>
<path fill="none" stroke="black" d="M51.69,-137.05C64.77,-133.17 83.26,-127.68 98.52,-123.15"/>
<polygon fill="black" stroke="black" points="99.37,-126.55 107.96,-120.35 97.38,-119.84 99.37,-126.55"/>
</g>
<!-- x[2]&#45;&gt;h1[1] -->
<g id="edge8" class="edge">
<title>x[2]&#45;&gt;h1[1]</title>
<path fill="none" stroke="black" d="M51.69,-146.95C64.77,-150.83 83.26,-156.32 98.52,-160.85"/>
<polygon fill="black" stroke="black" points="97.38,-164.16 107.96,-163.65 99.37,-157.45 97.38,-164.16"/>
</g>
<!-- x[2]&#45;&gt;h1[2] -->
<g id="edge9" class="edge">
<title>x[2]&#45;&gt;h1[2]</title>
<path fill="none" stroke="black" d="M48.04,-130.39C62.77,-117.28 86.97,-95.74 104.51,-80.13"/>
<polygon fill="black" stroke="black" points="106.71,-82.85 111.86,-73.59 102.06,-77.62 106.71,-82.85"/>
</g>
<!-- x[3] -->
<g id="node4" class="node">
<title>x[3]</title>
<ellipse fill="none" stroke="black" cx="34" cy="-196" rx="18" ry="18"/>
<text text-anchor="middle" x="34" y="-190.95" font-family="Times,serif" font-size="14.00">x[3]</text>
</g>
<!-- x[3]&#45;&gt;h1[0] -->
<g id="edge10" class="edge">
<title>x[3]&#45;&gt;h1[0]</title>
<path fill="none" stroke="black" d="M48.04,-184.39C62.77,-171.28 86.97,-149.74 104.51,-134.13"/>
<polygon fill="black" stroke="black" points="106.71,-136.85 111.86,-127.59 102.06,-131.62 106.71,-136.85"/>
</g>
<!-- x[3]&#45;&gt;h1[1] -->
<g id="edge11" class="edge">
<title>x[3]&#45;&gt;h1[1]</title>
<path fill="none" stroke="black" d="M51.69,-191.05C64.77,-187.17 83.26,-181.68 98.52,-177.15"/>
<polygon fill="black" stroke="black" points="99.37,-180.55 107.96,-174.35 97.38,-173.84 99.37,-180.55"/>
</g>
<!-- x[3]&#45;&gt;h1[2] -->
<g id="edge12" class="edge">
<title>x[3]&#45;&gt;h1[2]</title>
<path fill="none" stroke="black" d="M44.91,-181.3C60.5,-158.17 90.91,-113.05 109.74,-85.13"/>
<polygon fill="black" stroke="black" points="112.57,-87.19 115.25,-76.94 106.76,-83.28 112.57,-87.19"/>
</g>
<!-- h2[0] -->
<g id="node8" class="node">
<title>h2[0]</title>
<ellipse fill="none" stroke="black" cx="241" cy="-115" rx="18" ry="18"/>
<text text-anchor="middle" x="241" y="-109.95" font-family="Times,serif" font-size="14.00">h2[0]</text>
</g>
<!-- h1[0]&#45;&gt;h2[0] -->
<g id="edge13" class="edge">
<title>h1[0]&#45;&gt;h2[0]</title>
<path fill="none" stroke="black" d="M145.01,-115C162.61,-115 190.4,-115 211.39,-115"/>
<polygon fill="black" stroke="black" points="211.32,-118.5 221.32,-115 211.32,-111.5 211.32,-118.5"/>
</g>
<!-- h2[1] -->
<g id="node9" class="node">
<title>h2[1]</title>
<ellipse fill="none" stroke="black" cx="241" cy="-169" rx="18" ry="18"/>
<text text-anchor="middle" x="241" y="-163.95" font-family="Times,serif" font-size="14.00">h2[1]</text>
</g>
<!-- h1[0]&#45;&gt;h2[1] -->
<g id="edge14" class="edge">
<title>h1[0]&#45;&gt;h2[1]</title>
<path fill="none" stroke="black" d="M143.57,-122.51C161.78,-131.28 192.18,-145.94 213.98,-156.46"/>
<polygon fill="black" stroke="black" points="212.31,-159.53 222.83,-160.72 215.35,-153.23 212.31,-159.53"/>
</g>
<!-- h2[2] -->
<g id="node10" class="node">
<title>h2[2]</title>
<ellipse fill="none" stroke="black" cx="241" cy="-61" rx="18" ry="18"/>
<text text-anchor="middle" x="241" y="-55.95" font-family="Times,serif" font-size="14.00">h2[2]</text>
</g>
<!-- h1[0]&#45;&gt;h2[2] -->
<g id="edge15" class="edge">
<title>h1[0]&#45;&gt;h2[2]</title>
<path fill="none" stroke="black" d="M143.57,-107.49C161.78,-98.72 192.18,-84.06 213.98,-73.54"/>
<polygon fill="black" stroke="black" points="215.35,-76.77 222.83,-69.28 212.31,-70.47 215.35,-76.77"/>
</g>
<!-- h1[1]&#45;&gt;h2[0] -->
<g id="edge16" class="edge">
<title>h1[1]&#45;&gt;h2[0]</title>
<path fill="none" stroke="black" d="M143.57,-161.49C161.78,-152.72 192.18,-138.06 213.98,-127.54"/>
<polygon fill="black" stroke="black" points="215.35,-130.77 222.83,-123.28 212.31,-124.47 215.35,-130.77"/>
</g>
<!-- h1[1]&#45;&gt;h2[1] -->
<g id="edge17" class="edge">
<title>h1[1]&#45;&gt;h2[1]</title>
<path fill="none" stroke="black" d="M145.01,-169C162.61,-169 190.4,-169 211.39,-169"/>
<polygon fill="black" stroke="black" points="211.32,-172.5 221.32,-169 211.32,-165.5 211.32,-172.5"/>
</g>
<!-- h1[1]&#45;&gt;h2[2] -->
<g id="edge18" class="edge">
<title>h1[1]&#45;&gt;h2[2]</title>
<path fill="none" stroke="black" d="M140.41,-157.03C159.5,-138.62 196.28,-103.16 219.4,-80.86"/>
<polygon fill="black" stroke="black" points="221.67,-83.54 226.44,-74.07 216.81,-78.5 221.67,-83.54"/>
</g>
<!-- h1[2]&#45;&gt;h2[0] -->
<g id="edge19" class="edge">
<title>h1[2]&#45;&gt;h2[0]</title>
<path fill="none" stroke="black" d="M143.57,-68.51C161.78,-77.28 192.18,-91.94 213.98,-102.46"/>
<polygon fill="black" stroke="black" points="212.31,-105.53 222.83,-106.72 215.35,-99.23 212.31,-105.53"/>
</g>
<!-- h1[2]&#45;&gt;h2[1] -->
<g id="edge20" class="edge">
<title>h1[2]&#45;&gt;h2[1]</title>
<path fill="none" stroke="black" d="M140.41,-72.97C159.5,-91.38 196.28,-126.84 219.4,-149.14"/>
<polygon fill="black" stroke="black" points="216.81,-151.5 226.44,-155.93 221.67,-146.46 216.81,-151.5"/>
</g>
<!-- h1[2]&#45;&gt;h2[2] -->
<g id="edge21" class="edge">
<title>h1[2]&#45;&gt;h2[2]</title>
<path fill="none" stroke="black" d="M145.01,-61C162.61,-61 190.4,-61 211.39,-61"/>
<polygon fill="black" stroke="black" points="211.32,-64.5 221.32,-61 211.32,-57.5 211.32,-64.5"/>
</g>
<!-- y -->
<g id="node11" class="node">
<title>y</title>
<ellipse fill="none" stroke="black" cx="334" cy="-115" rx="18" ry="18"/>
<text text-anchor="middle" x="334" y="-109.95" font-family="Times,serif" font-size="14.00">y</text>
</g>
<!-- h2[0]&#45;&gt;y -->
<g id="edge22" class="edge">
<title>h2[0]&#45;&gt;y</title>
<path fill="none" stroke="black" d="M259.12,-115C271.87,-115 289.58,-115 304.47,-115"/>
<polygon fill="black" stroke="black" points="304.14,-118.5 314.14,-115 304.14,-111.5 304.14,-118.5"/>
</g>
<!-- h2[1]&#45;&gt;y -->
<g id="edge23" class="edge">
<title>h2[1]&#45;&gt;y</title>
<path fill="none" stroke="black" d="M257.03,-160.08C270.99,-151.8 292.04,-139.31 308.44,-129.57"/>
<polygon fill="black" stroke="black" points="309.84,-132.82 316.65,-124.7 306.26,-126.8 309.84,-132.82"/>
</g>
<!-- h2[2]&#45;&gt;y -->
<g id="edge24" class="edge">
<title>h2[2]&#45;&gt;y</title>
<path fill="none" stroke="black" d="M257.03,-69.92C270.99,-78.2 292.04,-90.69 308.44,-100.43"/>
<polygon fill="black" stroke="black" points="306.26,-103.2 316.65,-105.3 309.84,-97.18 306.26,-103.2"/>
</g>
</g>
</svg>
