<?xml version="1.0" encoding="UTF-8" standalone="no"?>
<!DOCTYPE svg PUBLIC "-//W3C//DTD SVG 1.1//EN"
 "http://www.w3.org/Graphics/SVG/1.1/DTD/svg11.dtd">
<!-- Generated by graphviz version 10.0.1 (20240210.2158)
 -->
<!-- Pages: 1 -->
<svg width="251pt" height="263pt"
 viewBox="0.00 0.00 251.00 263.00" xmlns="http://www.w3.org/2000/svg" xmlns:xlink="http://www.w3.org/1999/xlink">
<g id="graph0" class="graph" transform="scale(1 1) rotate(0) translate(4 259)">
<polygon fill="white" stroke="none" points="-4,4 -4,-259 247,-259 247,4 -4,4"/>
<g id="clust1" class="cluster">
<title>cluster_0</title>
<polygon fill="none" stroke="white" points="8,-8 8,-247 60,-247 60,-8 8,-8"/>
<text text-anchor="middle" x="34" y="-229.7" font-family="Times,serif" font-size="14.00">inputs</text>
</g>
<g id="clust2" class="cluster">
<title>cluster_1</title>
<polygon fill="none" stroke="white" points="80,-35 80,-220 163,-220 163,-35 80,-35"/>
<text text-anchor="middle" x="121.5" y="-202.7" font-family="Times,serif" font-size="14.00">hidden layer</text>
</g>
<g id="clust3" class="cluster">
<title>cluster_2</title>
<polygon fill="none" stroke="white" points="183,-89 183,-166 235,-166 235,-89 183,-89"/>
<text text-anchor="middle" x="209" y="-148.7" font-family="Times,serif" font-size="14.00">output</text>
</g>
<!-- x[0] -->
<g id="node1" class="node">
<title>x[0]</title>
<ellipse fill="none" stroke="black" cx="34" cy="-34" rx="18" ry="18"/>
<text text-anchor="middle" x="34" y="-28.95" font-family="Times,serif" font-size="14.00">x[0]</text>
</g>
<!-- h0 -->
<g id="node5" class="node">
<title>h0</title>
<ellipse fill="none" stroke="black" cx="121" cy="-115" rx="18" ry="18"/>
<text text-anchor="middle" x="121" y="-109.95" font-family="Times,serif" font-size="14.00">h[0]</text>
</g>
<!-- x[0]&#45;&gt;h0 -->
<g id="edge1" class="edge">
<title>x[0]&#45;&gt;h0</title>
<path fill="none" stroke="black" d="M47.54,-45.95C61.1,-58.87 82.94,-79.68 99.1,-95.08"/>
<polygon fill="black" stroke="black" points="96.66,-97.59 106.31,-101.95 101.49,-92.52 96.66,-97.59"/>
</g>
<!-- h1 -->
<g id="node6" class="node">
<title>h1</title>
<ellipse fill="none" stroke="black" cx="121" cy="-169" rx="18" ry="18"/>
<text text-anchor="middle" x="121" y="-163.95" font-family="Times,serif" font-size="14.00">h[1]</text>
</g>
<!-- x[0]&#45;&gt;h1 -->
<g id="edge2" class="edge">
<title>x[0]&#45;&gt;h1</title>
<path fill="none" stroke="black" d="M44.42,-48.96C58.97,-72.07 87.06,-116.69 104.6,-144.54"/>
<polygon fill="black" stroke="black" points="101.44,-146.09 109.73,-152.69 107.36,-142.36 101.44,-146.09"/>
</g>
<!-- h2 -->
<g id="node7" class="node">
<title>h2</title>
<ellipse fill="none" stroke="black" cx="121" cy="-61" rx="18" ry="18"/>
<text text-anchor="middle" x="121" y="-55.95" font-family="Times,serif" font-size="14.00">h[2]</text>
</g>
<!-- x[0]&#45;&gt;h2 -->
<g id="edge3" class="edge">
<title>x[0]&#45;&gt;h2</title>
<path fill="none" stroke="black" d="M51.39,-39.21C63.07,-42.92 79.05,-47.99 92.65,-52.31"/>
<polygon fill="black" stroke="black" points="91.34,-55.57 101.93,-55.26 93.46,-48.9 91.34,-55.57"/>
</g>
<!-- x[1] -->
<g id="node2" class="node">
<title>x[1]</title>
<ellipse fill="none" stroke="black" cx="34" cy="-88" rx="18" ry="18"/>
<text text-anchor="middle" x="34" y="-82.95" font-family="Times,serif" font-size="14.00">x[1]</text>
</g>
<!-- x[1]&#45;&gt;h0 -->
<g id="edge4" class="edge">
<title>x[1]&#45;&gt;h0</title>
<path fill="none" stroke="black" d="M51.39,-93.21C63.07,-96.92 79.05,-101.99 92.65,-106.31"/>
<polygon fill="black" stroke="black" points="91.34,-109.57 101.93,-109.26 93.46,-102.9 91.34,-109.57"/>
</g>
<!-- x[1]&#45;&gt;h1 -->
<g id="edge5" class="edge">
<title>x[1]&#45;&gt;h1</title>
<path fill="none" stroke="black" d="M47.54,-99.95C61.1,-112.87 82.94,-133.68 99.1,-149.08"/>
<polygon fill="black" stroke="black" points="96.66,-151.59 106.31,-155.95 101.49,-146.52 96.66,-151.59"/>
</g>
<!-- x[1]&#45;&gt;h2 -->
<g id="edge6" class="edge">
<title>x[1]&#45;&gt;h2</title>
<path fill="none" stroke="black" d="M51.39,-82.79C63.07,-79.08 79.05,-74.01 92.65,-69.69"/>
<polygon fill="black" stroke="black" points="93.46,-73.1 101.93,-66.74 91.34,-66.43 93.46,-73.1"/>
</g>
<!-- x[2] -->
<g id="node3" class="node">
<title>x[2]</title>
<ellipse fill="none" stroke="black" cx="34" cy="-142" rx="18" ry="18"/>
<text text-anchor="middle" x="34" y="-136.95" font-family="Times,serif" font-size="14.00">x[2]</text>
</g>
<!-- x[2]&#45;&gt;h0 -->
<g id="edge7" class="edge">
<title>x[2]&#45;&gt;h0</title>
<path fill="none" stroke="black" d="M51.39,-136.79C63.07,-133.08 79.05,-128.01 92.65,-123.69"/>
<polygon fill="black" stroke="black" points="93.46,-127.1 101.93,-120.74 91.34,-120.43 93.46,-127.1"/>
</g>
<!-- x[2]&#45;&gt;h1 -->
<g id="edge8" class="edge">
<title>x[2]&#45;&gt;h1</title>
<path fill="none" stroke="black" d="M51.39,-147.21C63.07,-150.92 79.05,-155.99 92.65,-160.31"/>
<polygon fill="black" stroke="black" points="91.34,-163.57 101.93,-163.26 93.46,-156.9 91.34,-163.57"/>
</g>
<!-- x[2]&#45;&gt;h2 -->
<g id="edge9" class="edge">
<title>x[2]&#45;&gt;h2</title>
<path fill="none" stroke="black" d="M47.54,-130.05C61.1,-117.13 82.94,-96.32 99.1,-80.92"/>
<polygon fill="black" stroke="black" points="101.49,-83.48 106.31,-74.05 96.66,-78.41 101.49,-83.48"/>
</g>
<!-- x[3] -->
<g id="node4" class="node">
<title>x[3]</title>
<ellipse fill="none" stroke="black" cx="34" cy="-196" rx="18" ry="18"/>
<text text-anchor="middle" x="34" y="-190.95" font-family="Times,serif" font-size="14.00">x[3]</text>
</g>
<!-- x[3]&#45;&gt;h0 -->
<g id="edge10" class="edge">
<title>x[3]&#45;&gt;h0</title>
<path fill="none" stroke="black" d="M47.54,-184.05C61.1,-171.13 82.94,-150.32 99.1,-134.92"/>
<polygon fill="black" stroke="black" points="101.49,-137.48 106.31,-128.05 96.66,-132.41 101.49,-137.48"/>
</g>
<!-- x[3]&#45;&gt;h1 -->
<g id="edge11" class="edge">
<title>x[3]&#45;&gt;h1</title>
<path fill="none" stroke="black" d="M51.39,-190.79C63.07,-187.08 79.05,-182.01 92.65,-177.69"/>
<polygon fill="black" stroke="black" points="93.46,-181.1 101.93,-174.74 91.34,-174.43 93.46,-181.1"/>
</g>
<!-- x[3]&#45;&gt;h2 -->
<g id="edge12" class="edge">
<title>x[3]&#45;&gt;h2</title>
<path fill="none" stroke="black" d="M44.42,-181.04C58.97,-157.93 87.06,-113.31 104.6,-85.46"/>
<polygon fill="black" stroke="black" points="107.36,-87.64 109.73,-77.31 101.44,-83.91 107.36,-87.64"/>
</g>
<!-- y -->
<g id="node8" class="node">
<title>y</title>
<ellipse fill="none" stroke="black" cx="209" cy="-115" rx="18" ry="18"/>
<text text-anchor="middle" x="209" y="-109.95" font-family="Times,serif" font-size="14.00">y</text>
</g>
<!-- h0&#45;&gt;y -->
<g id="edge13" class="edge">
<title>h0&#45;&gt;y</title>
<path fill="none" stroke="black" d="M139.4,-115C150.83,-115 166.04,-115 179.24,-115"/>
<polygon fill="black" stroke="black" points="179.11,-118.5 189.11,-115 179.11,-111.5 179.11,-118.5"/>
</g>
<!-- h1&#45;&gt;y -->
<g id="edge14" class="edge">
<title>h1&#45;&gt;y</title>
<path fill="none" stroke="black" d="M136.59,-159.84C149.56,-151.69 168.78,-139.63 184.01,-130.06"/>
<polygon fill="black" stroke="black" points="185.45,-133.29 192.06,-125.01 181.73,-127.36 185.45,-133.29"/>
</g>
<!-- h2&#45;&gt;y -->
<g id="edge15" class="edge">
<title>h2&#45;&gt;y</title>
<path fill="none" stroke="black" d="M136.59,-70.16C149.56,-78.31 168.78,-90.37 184.01,-99.94"/>
<polygon fill="black" stroke="black" points="181.73,-102.64 192.06,-104.99 185.45,-96.71 181.73,-102.64"/>
</g>
</g>
</svg>
